<svg width="167" height="58" viewBox="0 0 167 58" fill="none" xmlns="http://www.w3.org/2000/svg">
<path d="M83.6107 28.6336C83.6107 30.0636 82.5607 31.2336 81.2773 31.2336H80.1107C78.8273 31.2336 77.7773 30.0636 77.7773 28.6336V26.0336C77.7773 24.6036 78.8273 23.4336 80.1107 23.4336H81.2773C82.5607 23.4336 83.6107 24.6036 83.6107 26.0336V28.6336Z" fill="#FF8A80"/>
<path d="M82.056 27.0086V26.0336C82.056 24.6036 81.006 23.4336 79.7227 23.4336H81.2782C82.5615 23.4336 83.6115 24.6036 83.6115 26.0336V27.0086H82.056Z" fill="#E67C73"/>
<path d="M78.9462 27.0086V26.0336C78.9462 24.6036 79.9962 23.4336 81.2795 23.4336H79.724C78.4406 23.4336 77.3906 24.6036 77.3906 26.0336V27.0086H78.9462Z" fill="white"/>
<path d="M83.6111 29.0667C83.3964 29.0667 83.2222 28.8726 83.2222 28.6334V26.0333C83.2222 24.8382 82.3503 23.8667 81.2778 23.8667H79.7222C78.6497 23.8667 77.7778 24.8382 77.7778 26.0333V26.9C77.7778 27.1392 77.6036 27.3334 77.3889 27.3334C77.1742 27.3334 77 27.1392 77 26.9V26.0333C77 24.3607 78.2211 23 79.7222 23H81.2778C82.7789 23 84 24.3607 84 26.0333V28.6334C84 28.8726 83.8258 29.0667 83.6111 29.0667Z" fill="#455A64"/>
<path d="M83.9996 26.8984H77.7773V41.6318H83.9996V26.8984Z" fill="#80D8FF"/>
<path d="M83.6102 26.8984H82.0547V41.6318H83.6102V26.8984Z" fill="#73C2E6"/>
<path d="M78.9462 26.8984H77.3906V41.6318H78.9462V26.8984Z" fill="white"/>
<path d="M81.1341 47.8478C80.7848 48.7231 80.2194 48.7231 79.8702 47.8478L77.3906 41.632L78.9462 40.332L80.5017 41.632L82.0573 40.332L83.6128 41.632L81.1341 47.8478Z" fill="#FFE0B2"/>
<path d="M78.7305 44.9922L79.8699 47.8496C80.2191 48.7249 80.7846 48.7249 81.1338 47.8496L82.2732 44.9922H78.7305Z" fill="#80D8FF"/>
<path d="M80.4997 48.9991C80.3527 48.9991 80.2181 48.9064 80.152 48.7599L77.0409 41.8266C76.9452 41.6125 77.023 41.3525 77.2151 41.245C77.408 41.1384 77.6406 41.2251 77.737 41.4392L80.5005 47.5968L83.1185 41.7624L82.0552 40.8741L80.733 41.9791C80.5946 42.0944 80.4048 42.0944 80.2664 41.9791L78.7108 40.6791C78.5389 40.5352 78.5039 40.264 78.6322 40.0724C78.7621 39.8809 79.0056 39.8419 79.1767 39.9849L80.4989 41.0899L81.8211 39.9849C81.9596 39.8696 82.1494 39.8696 82.2878 39.9849L83.8434 41.2849C83.9935 41.4114 84.0425 41.6385 83.9577 41.8257L80.8466 48.7591C80.7812 48.9064 80.6467 48.9991 80.4997 48.9991Z" fill="#455A64"/>
<path d="M82.053 40.7659C81.8383 40.7659 81.6641 40.5718 81.6641 40.3326V28.6326C81.6641 28.3934 81.8383 28.1992 82.053 28.1992C82.2676 28.1992 82.4418 28.3934 82.4418 28.6326V40.3326C82.4418 40.5718 82.2676 40.7659 82.053 40.7659Z" fill="#455A64"/>
<path d="M78.9436 40.767C78.7289 40.767 78.5547 40.5728 78.5547 40.3336V30.3669C78.5547 30.1277 78.7289 29.9336 78.9436 29.9336C79.1582 29.9336 79.3325 30.1277 79.3325 30.3669V40.3336C79.3325 40.5728 79.1582 40.767 78.9436 40.767Z" fill="#455A64"/>
<path d="M78.9436 29.0659C79.1584 29.0659 79.3325 28.8719 79.3325 28.6326C79.3325 28.3932 79.1584 28.1992 78.9436 28.1992C78.7288 28.1992 78.5547 28.3932 78.5547 28.6326C78.5547 28.8719 78.7288 29.0659 78.9436 29.0659Z" fill="#455A64"/>
<path opacity="0.2" d="M5.00185 4.99919C2.24043 4.99919 0.00185394 7.23776 0.00185394 9.99919L0.00185394 37.625C0.00185394 40.3864 2.24043 42.625 5.00185 42.625H24.8197C25.355 42.625 25.793 42.1852 25.793 41.6477L25.793 9.99918C25.793 7.23776 23.5544 4.99919 20.793 4.99919H5.00185Z" fill="#455A64"/>
<path d="M31.0006 7.44531H7.91016C5.14873 7.44531 2.91016 9.68388 2.91016 12.4453V43.003C2.91016 45.7644 5.14873 48.003 7.91015 48.003H31.0006C33.7621 48.003 36.0006 45.7644 36.0006 43.003V12.4453C36.0006 9.68389 33.7621 7.44531 31.0006 7.44531Z" fill="white"/>
<path d="M31.0006 7.44531H7.91016C5.14873 7.44531 2.91016 9.68388 2.91016 12.4453V43.003C2.91016 45.7644 5.14873 48.003 7.91015 48.003H31.0006C33.7621 48.003 36.0006 45.7644 36.0006 43.003V12.4453C36.0006 9.68389 33.7621 7.44531 31.0006 7.44531Z" stroke="#455A64" stroke-width="2" stroke-miterlimit="10" stroke-linecap="round" stroke-linejoin="round"/>
<path opacity="0.2" d="M18.4805 19.1719H24.32" stroke="#455A64" stroke-width="2" stroke-miterlimit="10" stroke-linecap="round" stroke-linejoin="round"/>
<path opacity="0.2" d="M18.4805 16.7305H30.1595" stroke="#455A64" stroke-width="2" stroke-miterlimit="10" stroke-linecap="round" stroke-linejoin="round"/>
<path d="M14.1051 21.6145H9.23887C8.70359 21.6145 8.26562 21.1747 8.26562 20.6372V15.7507C8.26562 15.2132 8.70359 14.7734 9.23887 14.7734H14.1051C14.6404 14.7734 15.0784 15.2132 15.0784 15.7507V20.6372C15.0784 21.1747 14.6404 21.6145 14.1051 21.6145Z" fill="#83D689"/>
<path d="M9.87109 18.5382L11.2823 19.8576L14.0561 17.0234" stroke="#455A64" stroke-miterlimit="10" stroke-linecap="round" stroke-linejoin="round"/>
<path opacity="0.2" d="M18.4805 29.4336H24.32" stroke="#455A64" stroke-width="2" stroke-miterlimit="10" stroke-linecap="round" stroke-linejoin="round"/>
<path opacity="0.2" d="M18.4805 26.5H30.1595" stroke="#455A64" stroke-width="2" stroke-miterlimit="10" stroke-linecap="round" stroke-linejoin="round"/>
<path d="M14.1051 31.3879H9.23887C8.70359 31.3879 8.26562 30.9481 8.26562 30.4106V25.5242C8.26562 24.9867 8.70359 24.5469 9.23887 24.5469H14.0078C14.5917 24.5469 15.0784 25.0355 15.0784 25.6219V30.4106C15.0784 30.9481 14.6404 31.3879 14.1051 31.3879Z" fill="#83D689"/>
<path d="M9.87109 28.4113L11.2823 29.7306L14.0561 26.9453" stroke="#455A64" stroke-miterlimit="10" stroke-linecap="round" stroke-linejoin="round"/>
<path opacity="0.1" d="M18.4805 39.207H24.32" stroke="#455A64" stroke-width="2" stroke-miterlimit="10" stroke-linecap="round" stroke-linejoin="round"/>
<path opacity="0.2" d="M18.4805 36.7617H30.1595" stroke="#455A64" stroke-width="2" stroke-miterlimit="10" stroke-linecap="round" stroke-linejoin="round"/>
<path d="M14.1051 41.1614H9.23887C8.70359 41.1614 8.26562 40.7216 8.26562 40.1841V35.2976C8.26562 34.7601 8.70359 34.3203 9.23887 34.3203H14.1051C14.6404 34.3203 15.0784 34.7601 15.0784 35.2976V40.1841C15.0784 40.7216 14.6404 41.1614 14.1051 41.1614Z" fill="#83D689"/>
<path d="M14.1051 21.6145H9.23887C8.70359 21.6145 8.26562 21.1747 8.26562 20.6372V15.7507C8.26562 15.2132 8.70359 14.7734 9.23887 14.7734H14.1051C14.6404 14.7734 15.0784 15.2132 15.0784 15.7507V20.6372C15.0784 21.1747 14.6404 21.6145 14.1051 21.6145Z" stroke="#455A64" stroke-miterlimit="10" stroke-linecap="round" stroke-linejoin="round"/>
<path d="M14.1051 31.3879H9.23887C8.70359 31.3879 8.26562 30.9481 8.26562 30.4106V25.5242C8.26562 24.9867 8.70359 24.5469 9.23887 24.5469H14.0078C14.5917 24.5469 15.0784 25.0355 15.0784 25.6219V30.4106C15.0784 30.9481 14.6404 31.3879 14.1051 31.3879Z" stroke="#455A64" stroke-miterlimit="10" stroke-linecap="round" stroke-linejoin="round"/>
<path d="M14.1051 41.1614H9.23887C8.70359 41.1614 8.26562 40.7216 8.26562 40.1841V35.2976C8.26562 34.7601 8.70359 34.3203 9.23887 34.3203H14.1051C14.6404 34.3203 15.0784 34.7601 15.0784 35.2976V40.1841C15.0784 40.7216 14.6404 41.1614 14.1051 41.1614Z" stroke="#455A64" stroke-miterlimit="10" stroke-linecap="round" stroke-linejoin="round"/>
<path d="M118.886 15H117.409L121.682 3.36364H123.136L127.409 15H125.932L122.455 5.20455H122.364L118.886 15ZM119.432 10.4545H125.386V11.7045H119.432V10.4545ZM132.335 15.1818C131.608 15.1818 130.966 14.9981 130.409 14.6307C129.852 14.2595 129.417 13.7367 129.102 13.0625C128.788 12.3845 128.631 11.5833 128.631 10.6591C128.631 9.74242 128.788 8.94697 129.102 8.27273C129.417 7.59848 129.854 7.07765 130.415 6.71023C130.975 6.3428 131.623 6.15909 132.358 6.15909C132.926 6.15909 133.375 6.25379 133.705 6.44318C134.038 6.62879 134.292 6.84091 134.466 7.07955C134.644 7.31439 134.782 7.50758 134.881 7.65909H134.994V3.36364H136.335V15H135.04V13.6591H134.881C134.782 13.8182 134.642 14.0189 134.46 14.2614C134.278 14.5 134.019 14.714 133.682 14.9034C133.345 15.089 132.896 15.1818 132.335 15.1818ZM132.517 13.9773C133.055 13.9773 133.509 13.8371 133.881 13.5568C134.252 13.2727 134.534 12.8807 134.727 12.3807C134.92 11.8769 135.017 11.2955 135.017 10.6364C135.017 9.98485 134.922 9.41477 134.733 8.92614C134.544 8.43371 134.263 8.05114 133.892 7.77841C133.521 7.50189 133.063 7.36364 132.517 7.36364C131.949 7.36364 131.475 7.50947 131.097 7.80114C130.722 8.08902 130.439 8.48106 130.25 8.97727C130.064 9.4697 129.972 10.0227 129.972 10.6364C129.972 11.2576 130.066 11.822 130.256 12.3295C130.449 12.8333 130.733 13.2348 131.108 13.5341C131.487 13.8295 131.956 13.9773 132.517 13.9773ZM138.977 15V6.27273H140.273V7.63636H140.386C140.568 7.17045 140.862 6.80871 141.267 6.55114C141.672 6.28977 142.159 6.15909 142.727 6.15909C143.303 6.15909 143.782 6.28977 144.165 6.55114C144.551 6.80871 144.852 7.17045 145.068 7.63636H145.159C145.383 7.18561 145.718 6.82765 146.165 6.5625C146.612 6.29356 147.148 6.15909 147.773 6.15909C148.553 6.15909 149.191 6.40341 149.688 6.89205C150.184 7.37689 150.432 8.13258 150.432 9.15909V15H149.091V9.15909C149.091 8.51515 148.915 8.05492 148.562 7.77841C148.21 7.50189 147.795 7.36364 147.318 7.36364C146.705 7.36364 146.229 7.54924 145.892 7.92045C145.555 8.28788 145.386 8.75379 145.386 9.31818V15H144.023V9.02273C144.023 8.52652 143.862 8.12689 143.54 7.82386C143.218 7.51705 142.803 7.36364 142.295 7.36364C141.947 7.36364 141.621 7.45644 141.318 7.64205C141.019 7.82765 140.777 8.08523 140.591 8.41477C140.409 8.74053 140.318 9.11742 140.318 9.54545V15H138.977ZM152.884 15V6.27273H154.224V15H152.884ZM153.565 4.81818C153.304 4.81818 153.079 4.72917 152.889 4.55114C152.704 4.37311 152.611 4.15909 152.611 3.90909C152.611 3.65909 152.704 3.44508 152.889 3.26705C153.079 3.08902 153.304 3 153.565 3C153.827 3 154.05 3.08902 154.236 3.26705C154.425 3.44508 154.52 3.65909 154.52 3.90909C154.52 4.15909 154.425 4.37311 154.236 4.55114C154.05 4.72917 153.827 4.81818 153.565 4.81818ZM158.021 9.75V15H156.68V6.27273H157.976V7.63636H158.089C158.294 7.19318 158.605 6.83712 159.021 6.56818C159.438 6.29545 159.976 6.15909 160.635 6.15909C161.226 6.15909 161.743 6.2803 162.186 6.52273C162.629 6.76136 162.974 7.125 163.22 7.61364C163.466 8.09848 163.589 8.71212 163.589 9.45455V15H162.249V9.54545C162.249 8.85985 162.071 8.32576 161.714 7.94318C161.358 7.55682 160.87 7.36364 160.249 7.36364C159.821 7.36364 159.438 7.45644 159.101 7.64205C158.768 7.82765 158.504 8.09848 158.311 8.45455C158.118 8.81061 158.021 9.24242 158.021 9.75Z" fill="#FF8A80"/>
<path d="M42.5227 19.9091H46.7273L56.6136 44.0568H56.9545L66.8409 19.9091H71.0455V49H67.75V26.8977H67.4659L58.375 49H55.1932L46.1023 26.8977H45.8182V49H42.5227V19.9091ZM90.5518 19.9091L99.1882 44.3977H99.5291L108.165 19.9091H111.859L101.177 49H97.5405L86.8587 19.9091H90.5518ZM116.39 49V19.9091H133.947V23.0341H119.913V32.8636H133.038V35.9886H119.913V45.875H134.174V49H116.39ZM163.364 19.9091V49H159.955L144.103 26.1591H143.819V49H140.296V19.9091H143.705L159.614 42.8068H159.898V19.9091H163.364Z" fill="#455A64"/>
<path d="M88.5822 49.0365C88.8574 49.0133 89.0616 48.7714 89.0385 48.4963C89.0153 48.2211 88.7734 48.0168 88.4982 48.04C88.2231 48.0632 88.0188 48.3051 88.042 48.5803C88.0652 48.8554 88.307 49.0597 88.5822 49.0365Z" fill="#455A64"/>
<path d="M86.5 49H80.5C80.224 49 80 48.776 80 48.5C80 48.224 80.224 48 80.5 48H86.5C86.776 48 87 48.224 87 48.5C87 48.776 86.776 49 86.5 49Z" fill="#455A64"/>
<path d="M82.0577 45.5307H80.5022C80.2875 45.5307 80.1133 45.3366 80.1133 45.0974C80.1133 44.8582 80.2875 44.6641 80.5022 44.6641H82.0577C82.2724 44.6641 82.4466 44.8582 82.4466 45.0974C82.4466 45.3366 82.2724 45.5307 82.0577 45.5307Z" fill="#455A64"/>
<path d="M77.3889 42.0698C77.1742 42.0698 77 41.8757 77 41.6365V28.6365C77 28.3973 77.1742 28.2031 77.3889 28.2031C77.6036 28.2031 77.7778 28.3973 77.7778 28.6365V41.6365C77.7778 41.8757 77.6036 42.0698 77.3889 42.0698Z" fill="#455A64"/>
<path d="M83.6111 42.0688C83.3964 42.0688 83.2222 41.8747 83.2222 41.6355V27.3354H77.3889C77.1742 27.3354 77 27.1413 77 26.9021C77 26.6629 77.1742 26.4688 77.3889 26.4688H83.6111C83.8258 26.4688 84 26.6629 84 26.9021V41.6355C84 41.8747 83.8258 42.0688 83.6111 42.0688Z" fill="#455A64"/>
</svg>
