<svg width="38" height="48" viewBox="0 0 38 48" fill="none" xmlns="http://www.w3.org/2000/svg">
<path d="M37.3073 9.84375L27.6193 0.65625C27.174 0.234375 26.5703 0 25.937 0H25.3333V12H38V11.4281C38 10.8375 37.7526 10.2656 37.3073 9.84375ZM12.7063 31.5C10.9349 31.5 9.5 32.6344 9.5 34.0312C9.5 35.4375 10.9448 36.5625 12.7161 36.5625C14.4875 36.5625 15.9224 35.4281 15.9224 34.0312C15.9224 32.6344 14.4776 31.5 12.7063 31.5ZM22.1667 12.75V0H15.8729V3H12.7063V0H2.375C1.05885 0 0 1.00312 0 2.25V45.75C0 46.9969 1.05885 48 2.375 48H35.625C36.9411 48 38 46.9969 38 45.75V15H24.5417C23.2354 15 22.1667 13.9875 22.1667 12.75ZM9.4901 3H12.6568V6H9.4901V3ZM12.6865 39C9.40104 39 6.94688 36.15 7.6 33.1031L9.53958 24V21H12.7063V18H9.53958V15H12.7063V12H9.53958V9H12.7063V6H15.8729V9H12.7063V12H15.8729V15H12.7063V18H15.8729V21H12.7063V24H14.8932C15.4573 24 15.9521 24.3844 16.0609 24.9094L17.7729 33.1312C18.4063 36.1687 15.9521 39 12.6865 39Z" fill="#455A64"/>
</svg>
