<svg width="16" height="16" viewBox="0 0 16 16" fill="none" xmlns="http://www.w3.org/2000/svg">
<path d="M15.0889 13.1006L9.9873 7.99902L15.0889 2.89746C15.6396 2.34668 15.6396 1.45996 15.0889 0.90918C14.5381 0.358398 13.6514 0.358398 13.1006 0.90918L7.99902 6.01074L2.89746 0.90918C2.34668 0.358398 1.45996 0.358398 0.90918 0.90918C0.358398 1.45996 0.358398 2.34668 0.90918 2.89746L6.01074 7.99902L0.90918 13.1006C0.358398 13.6514 0.358398 14.5381 0.90918 15.0889C1.45996 15.6396 2.34668 15.6396 2.89746 15.0889L7.99902 9.9873L13.1006 15.0889C13.6514 15.6396 14.5381 15.6396 15.0889 15.0889C15.6357 14.5381 15.6357 13.6475 15.0889 13.1006Z" fill="#FF8B81"/>
</svg>
