<svg width="40" height="48" viewBox="0 0 40 48" fill="none" xmlns="http://www.w3.org/2000/svg">
<path d="M12.6992 14.8984H15.6992V38.8984H12.6992V14.8984Z" fill="#FF8A80"/>
<path d="M18.6992 14.8984H21.6992V38.8984H18.6992V14.8984Z" fill="#FF8A80"/>
<path d="M24.6992 14.8984H27.6992V38.8984H24.6992V14.8984Z" fill="#FF8A80"/>
<path d="M0.699219 5.89844H39.6992V8.89844H0.699219V5.89844Z" fill="#FF8A80"/>
<path d="M27.6008 7.39999H24.8008V4.39999C24.8008 3.49999 24.1008 2.8 23.2008 2.8H17.2008C16.3008 2.8 15.6008 3.49999 15.6008 4.39999V7.39999H12.8008V4.39999C12.8008 1.99999 14.8008 0 17.2008 0H23.2008C25.6008 0 27.6008 1.99999 27.6008 4.39999V7.39999Z" fill="#FF8A80"/>
<path d="M29.1992 47.9008H11.1992C8.79922 47.9008 6.69922 45.9008 6.49922 43.5008L3.69922 7.50078L6.69922 7.30078L9.49922 43.3008C9.59922 44.2008 10.3992 44.9008 11.1992 44.9008H29.1992C30.0992 44.9008 30.8992 44.1008 30.8992 43.3008L33.6992 7.30078L36.6992 7.50078L33.8992 43.5008C33.6992 46.0008 31.5992 47.9008 29.1992 47.9008Z" fill="#FF8A80"/>
</svg>
