<svg width="44" height="45" viewBox="0 0 44 45" fill="none" xmlns="http://www.w3.org/2000/svg">
<path d="M0 44.0023L3.7 29.1024L26.4 6.40234L37.6 17.6024L14.9 40.3023L0 44.0023ZM6.3 30.5023L3.89999 40.1024L13.5 37.7024L33.7 17.5023L26.5 10.3023L6.3 30.5023Z" fill="#455A64"/>
<path d="M12.5016 39.3992C11.5016 35.4992 8.50156 32.4992 4.60156 31.4992L5.30157 28.6992C10.2016 29.8992 14.0016 33.6992 15.2016 38.5992L12.5016 39.3992Z" fill="#455A64"/>
<path d="M12.1992 33.9023L10.1992 31.8023L30.0992 11.9023L32.0992 13.9023L12.1992 33.9023Z" fill="#455A64"/>
<path d="M2 42.0016L6.39999 40.9016C5.99999 39.3016 4.69999 38.0016 3.09999 37.6016L2 42.0016Z" fill="#455A64"/>
<path d="M38.7 16.5008L27.5 5.30078L32 0.800781L32.7 0.900787C38.1 1.60079 42.4 5.90078 43.1 11.3008L43.2 12.0008L38.7 16.5008ZM31.6 5.30078L38.8 12.5008L40.2 11.1008C39.4 7.5008 36.6 4.70079 33 3.90079L31.6 5.30078Z" fill="#455A64"/>
</svg>
