<svg width="167" height="57" viewBox="0 0 167 57" fill="none" xmlns="http://www.w3.org/2000/svg">
<path d="M83.6107 27.6336C83.6107 29.0636 82.5607 30.2336 81.2773 30.2336H80.1107C78.8273 30.2336 77.7773 29.0636 77.7773 27.6336V25.0336C77.7773 23.6036 78.8273 22.4336 80.1107 22.4336H81.2773C82.5607 22.4336 83.6107 23.6036 83.6107 25.0336V27.6336Z" fill="#FF8A80"/>
<path d="M82.056 26.0086V25.0336C82.056 23.6036 81.006 22.4336 79.7227 22.4336H81.2782C82.5615 22.4336 83.6115 23.6036 83.6115 25.0336V26.0086H82.056Z" fill="#E67C73"/>
<path d="M78.9462 26.0086V25.0336C78.9462 23.6036 79.9962 22.4336 81.2795 22.4336H79.724C78.4406 22.4336 77.3906 23.6036 77.3906 25.0336V26.0086H78.9462Z" fill="white"/>
<path d="M83.6111 28.0667C83.3964 28.0667 83.2222 27.8726 83.2222 27.6334V25.0333C83.2222 23.8382 82.3503 22.8667 81.2778 22.8667H79.7222C78.6497 22.8667 77.7778 23.8382 77.7778 25.0333V25.9C77.7778 26.1392 77.6036 26.3334 77.3889 26.3334C77.1742 26.3334 77 26.1392 77 25.9V25.0333C77 23.3607 78.2211 22 79.7222 22H81.2778C82.7789 22 84 23.3607 84 25.0333V27.6334C84 27.8726 83.8258 28.0667 83.6111 28.0667Z" fill="#455A64"/>
<path d="M83.9996 25.8984H77.7773V40.6318H83.9996V25.8984Z" fill="#80D8FF"/>
<path d="M83.6102 25.8984H82.0547V40.6318H83.6102V25.8984Z" fill="#73C2E6"/>
<path d="M78.9462 25.8984H77.3906V40.6318H78.9462V25.8984Z" fill="white"/>
<path d="M81.1341 46.8478C80.7848 47.7231 80.2194 47.7231 79.8702 46.8478L77.3906 40.632L78.9462 39.332L80.5017 40.632L82.0573 39.332L83.6128 40.632L81.1341 46.8478Z" fill="#FFE0B2"/>
<path d="M78.7305 43.9922L79.8699 46.8496C80.2191 47.7249 80.7846 47.7249 81.1338 46.8496L82.2732 43.9922H78.7305Z" fill="#80D8FF"/>
<path d="M80.4997 47.9991C80.3527 47.9991 80.2181 47.9064 80.152 47.7599L77.0409 40.8266C76.9452 40.6125 77.023 40.3525 77.2151 40.245C77.408 40.1384 77.6406 40.2251 77.737 40.4392L80.5005 46.5968L83.1185 40.7624L82.0552 39.8741L80.733 40.9791C80.5946 41.0944 80.4048 41.0944 80.2664 40.9791L78.7108 39.6791C78.5389 39.5352 78.5039 39.264 78.6322 39.0724C78.7621 38.8809 79.0056 38.8419 79.1767 38.9849L80.4989 40.0899L81.8211 38.9849C81.9596 38.8696 82.1494 38.8696 82.2878 38.9849L83.8434 40.2849C83.9935 40.4114 84.0425 40.6385 83.9577 40.8257L80.8466 47.7591C80.7812 47.9064 80.6467 47.9991 80.4997 47.9991Z" fill="#455A64"/>
<path d="M82.053 39.7659C81.8383 39.7659 81.6641 39.5718 81.6641 39.3326V27.6326C81.6641 27.3934 81.8383 27.1992 82.053 27.1992C82.2676 27.1992 82.4418 27.3934 82.4418 27.6326V39.3326C82.4418 39.5718 82.2676 39.7659 82.053 39.7659Z" fill="#455A64"/>
<path d="M78.9436 39.767C78.7289 39.767 78.5547 39.5728 78.5547 39.3336V29.3669C78.5547 29.1277 78.7289 28.9336 78.9436 28.9336C79.1582 28.9336 79.3325 29.1277 79.3325 29.3669V39.3336C79.3325 39.5728 79.1582 39.767 78.9436 39.767Z" fill="#455A64"/>
<path d="M78.9436 28.0659C79.1584 28.0659 79.3325 27.8719 79.3325 27.6326C79.3325 27.3932 79.1584 27.1992 78.9436 27.1992C78.7288 27.1992 78.5547 27.3932 78.5547 27.6326C78.5547 27.8719 78.7288 28.0659 78.9436 28.0659Z" fill="#455A64"/>
<path opacity="0.2" d="M5.00185 3.99919C2.24043 3.99919 0.00185394 6.23776 0.00185394 8.99919L0.00185394 36.625C0.00185394 39.3864 2.24043 41.625 5.00185 41.625H24.8197C25.355 41.625 25.793 41.1852 25.793 40.6477L25.793 8.99918C25.793 6.23776 23.5544 3.99919 20.793 3.99919H5.00185Z" fill="#455A64"/>
<path d="M31.0006 6.44531H7.91016C5.14873 6.44531 2.91016 8.68388 2.91016 11.4453V42.003C2.91016 44.7644 5.14873 47.003 7.91015 47.003H31.0006C33.7621 47.003 36.0006 44.7644 36.0006 42.003V11.4453C36.0006 8.68389 33.7621 6.44531 31.0006 6.44531Z" fill="white"/>
<path d="M31.0006 6.44531H7.91016C5.14873 6.44531 2.91016 8.68388 2.91016 11.4453V42.003C2.91016 44.7644 5.14873 47.003 7.91015 47.003H31.0006C33.7621 47.003 36.0006 44.7644 36.0006 42.003V11.4453C36.0006 8.68389 33.7621 6.44531 31.0006 6.44531Z" stroke="#455A64" stroke-width="2" stroke-miterlimit="10" stroke-linecap="round" stroke-linejoin="round"/>
<path opacity="0.2" d="M18.4805 18.1719H24.32" stroke="#455A64" stroke-width="2" stroke-miterlimit="10" stroke-linecap="round" stroke-linejoin="round"/>
<path opacity="0.2" d="M18.4805 15.7305H30.1595" stroke="#455A64" stroke-width="2" stroke-miterlimit="10" stroke-linecap="round" stroke-linejoin="round"/>
<path d="M14.1051 20.6145H9.23887C8.70359 20.6145 8.26562 20.1747 8.26562 19.6372V14.7507C8.26562 14.2132 8.70359 13.7734 9.23887 13.7734H14.1051C14.6404 13.7734 15.0784 14.2132 15.0784 14.7507V19.6372C15.0784 20.1747 14.6404 20.6145 14.1051 20.6145Z" fill="#83D689"/>
<path d="M9.87109 17.5382L11.2823 18.8576L14.0561 16.0234" stroke="#455A64" stroke-miterlimit="10" stroke-linecap="round" stroke-linejoin="round"/>
<path opacity="0.2" d="M18.4805 28.4336H24.32" stroke="#455A64" stroke-width="2" stroke-miterlimit="10" stroke-linecap="round" stroke-linejoin="round"/>
<path opacity="0.2" d="M18.4805 25.5H30.1595" stroke="#455A64" stroke-width="2" stroke-miterlimit="10" stroke-linecap="round" stroke-linejoin="round"/>
<path d="M14.1051 30.3879H9.23887C8.70359 30.3879 8.26562 29.9481 8.26562 29.4106V24.5242C8.26562 23.9867 8.70359 23.5469 9.23887 23.5469H14.0078C14.5917 23.5469 15.0784 24.0355 15.0784 24.6219V29.4106C15.0784 29.9481 14.6404 30.3879 14.1051 30.3879Z" fill="#83D689"/>
<path d="M9.87109 27.4113L11.2823 28.7306L14.0561 25.9453" stroke="#455A64" stroke-miterlimit="10" stroke-linecap="round" stroke-linejoin="round"/>
<path opacity="0.1" d="M18.4805 38.207H24.32" stroke="#455A64" stroke-width="2" stroke-miterlimit="10" stroke-linecap="round" stroke-linejoin="round"/>
<path opacity="0.2" d="M18.4805 35.7617H30.1595" stroke="#455A64" stroke-width="2" stroke-miterlimit="10" stroke-linecap="round" stroke-linejoin="round"/>
<path d="M14.1051 40.1614H9.23887C8.70359 40.1614 8.26562 39.7216 8.26562 39.1841V34.2976C8.26562 33.7601 8.70359 33.3203 9.23887 33.3203H14.1051C14.6404 33.3203 15.0784 33.7601 15.0784 34.2976V39.1841C15.0784 39.7216 14.6404 40.1614 14.1051 40.1614Z" fill="#83D689"/>
<path d="M14.1051 20.6145H9.23887C8.70359 20.6145 8.26562 20.1747 8.26562 19.6372V14.7507C8.26562 14.2132 8.70359 13.7734 9.23887 13.7734H14.1051C14.6404 13.7734 15.0784 14.2132 15.0784 14.7507V19.6372C15.0784 20.1747 14.6404 20.6145 14.1051 20.6145Z" stroke="#455A64" stroke-miterlimit="10" stroke-linecap="round" stroke-linejoin="round"/>
<path d="M14.1051 30.3879H9.23887C8.70359 30.3879 8.26562 29.9481 8.26562 29.4106V24.5242C8.26562 23.9867 8.70359 23.5469 9.23887 23.5469H14.0078C14.5917 23.5469 15.0784 24.0355 15.0784 24.6219V29.4106C15.0784 29.9481 14.6404 30.3879 14.1051 30.3879Z" stroke="#455A64" stroke-miterlimit="10" stroke-linecap="round" stroke-linejoin="round"/>
<path d="M14.1051 40.1614H9.23887C8.70359 40.1614 8.26562 39.7216 8.26562 39.1841V34.2976C8.26562 33.7601 8.70359 33.3203 9.23887 33.3203H14.1051C14.6404 33.3203 15.0784 33.7601 15.0784 34.2976V39.1841C15.0784 39.7216 14.6404 40.1614 14.1051 40.1614Z" stroke="#455A64" stroke-miterlimit="10" stroke-linecap="round" stroke-linejoin="round"/>
<path d="M69.4091 3.36364H71.0909L75.0455 13.0227H75.1818L79.1364 3.36364H80.8182V15H79.5V6.15909H79.3864L75.75 15H74.4773L70.8409 6.15909H70.7273V15H69.4091V3.36364ZM84.3253 18.2727C84.098 18.2727 83.8954 18.2538 83.7173 18.2159C83.5393 18.1818 83.4162 18.1477 83.348 18.1136L83.6889 16.9318C84.0147 17.0152 84.3026 17.0455 84.5526 17.0227C84.8026 17 85.0241 16.8883 85.2173 16.6875C85.4143 16.4905 85.5942 16.1705 85.7571 15.7273L86.0071 15.0455L82.7798 6.27273H84.2344L86.6435 13.2273H86.7344L89.1435 6.27273H90.598L86.8935 16.2727C86.7268 16.7235 86.5204 17.0966 86.2741 17.392C86.0279 17.6913 85.742 17.9129 85.4162 18.0568C85.0942 18.2008 84.7306 18.2727 84.3253 18.2727ZM96.8679 15V6.27273H98.2088V15H96.8679ZM97.5497 4.81818C97.2884 4.81818 97.063 4.72917 96.8736 4.55114C96.688 4.37311 96.5952 4.15909 96.5952 3.90909C96.5952 3.65909 96.688 3.44508 96.8736 3.26705C97.063 3.08902 97.2884 3 97.5497 3C97.8111 3 98.0346 3.08902 98.2202 3.26705C98.4096 3.44508 98.5043 3.65909 98.5043 3.90909C98.5043 4.15909 98.4096 4.37311 98.2202 4.55114C98.0346 4.72917 97.8111 4.81818 97.5497 4.81818ZM102.006 9.75V15H100.665V6.27273H101.96V7.63636H102.074C102.278 7.19318 102.589 6.83712 103.006 6.56818C103.422 6.29545 103.96 6.15909 104.619 6.15909C105.21 6.15909 105.727 6.2803 106.17 6.52273C106.614 6.76136 106.958 7.125 107.205 7.61364C107.451 8.09848 107.574 8.71212 107.574 9.45455V15H106.233V9.54545C106.233 8.85985 106.055 8.32576 105.699 7.94318C105.343 7.55682 104.854 7.36364 104.233 7.36364C103.805 7.36364 103.422 7.45644 103.085 7.64205C102.752 7.82765 102.489 8.09848 102.295 8.45455C102.102 8.81061 102.006 9.24242 102.006 9.75ZM116.848 6.27273L113.621 15H112.257L109.03 6.27273H110.484L112.893 13.2273H112.984L115.393 6.27273H116.848ZM121.964 15.1818C121.124 15.1818 120.398 14.9962 119.788 14.625C119.182 14.25 118.714 13.7273 118.385 13.0568C118.059 12.3826 117.896 11.5985 117.896 10.7045C117.896 9.81061 118.059 9.02273 118.385 8.34091C118.714 7.6553 119.173 7.12121 119.76 6.73864C120.351 6.35227 121.04 6.15909 121.828 6.15909C122.283 6.15909 122.732 6.23485 123.175 6.38636C123.618 6.53788 124.021 6.78409 124.385 7.125C124.749 7.46212 125.038 7.90909 125.254 8.46591C125.47 9.02273 125.578 9.70833 125.578 10.5227V11.0909H118.851V9.93182H124.214C124.214 9.43939 124.116 9 123.919 8.61364C123.726 8.22727 123.449 7.92235 123.089 7.69886C122.733 7.47538 122.313 7.36364 121.828 7.36364C121.294 7.36364 120.832 7.49621 120.442 7.76136C120.055 8.02273 119.758 8.36364 119.55 8.78409C119.341 9.20455 119.237 9.6553 119.237 10.1364V10.9091C119.237 11.5682 119.351 12.1269 119.578 12.5852C119.809 13.0398 120.129 13.3864 120.538 13.625C120.947 13.8598 121.423 13.9773 121.964 13.9773C122.317 13.9773 122.635 13.928 122.919 13.8295C123.207 13.7273 123.455 13.5758 123.663 13.375C123.872 13.1705 124.033 12.9167 124.146 12.6136L125.442 12.9773C125.305 13.4167 125.076 13.803 124.754 14.1364C124.432 14.4659 124.035 14.7235 123.561 14.9091C123.088 15.0909 122.555 15.1818 121.964 15.1818ZM128.959 9.75V15H127.618V6.27273H128.913V7.63636H129.027C129.232 7.19318 129.542 6.83712 129.959 6.56818C130.375 6.29545 130.913 6.15909 131.572 6.15909C132.163 6.15909 132.68 6.2803 133.124 6.52273C133.567 6.76136 133.911 7.125 134.158 7.61364C134.404 8.09848 134.527 8.71212 134.527 9.45455V15H133.186V9.54545C133.186 8.85985 133.008 8.32576 132.652 7.94318C132.296 7.55682 131.807 7.36364 131.186 7.36364C130.758 7.36364 130.375 7.45644 130.038 7.64205C129.705 7.82765 129.442 8.09848 129.249 8.45455C129.055 8.81061 128.959 9.24242 128.959 9.75ZM140.773 6.27273V7.40909H136.25V6.27273H140.773ZM137.568 4.18182H138.909V12.5C138.909 12.8788 138.964 13.1629 139.074 13.3523C139.188 13.5379 139.331 13.6629 139.506 13.7273C139.684 13.7879 139.871 13.8182 140.068 13.8182C140.216 13.8182 140.337 13.8106 140.432 13.7955C140.527 13.7765 140.602 13.7614 140.659 13.75L140.932 14.9545C140.841 14.9886 140.714 15.0227 140.551 15.0568C140.388 15.0947 140.182 15.1136 139.932 15.1136C139.553 15.1136 139.182 15.0322 138.818 14.8693C138.458 14.7064 138.159 14.4583 137.92 14.125C137.686 13.7917 137.568 13.3712 137.568 12.8636V4.18182ZM146.241 15.1818C145.454 15.1818 144.762 14.9943 144.168 14.6193C143.577 14.2443 143.115 13.7197 142.781 13.0455C142.452 12.3712 142.287 11.5833 142.287 10.6818C142.287 9.77273 142.452 8.97917 142.781 8.30114C143.115 7.62311 143.577 7.09659 144.168 6.72159C144.762 6.34659 145.454 6.15909 146.241 6.15909C147.029 6.15909 147.719 6.34659 148.31 6.72159C148.904 7.09659 149.366 7.62311 149.696 8.30114C150.029 8.97917 150.196 9.77273 150.196 10.6818C150.196 11.5833 150.029 12.3712 149.696 13.0455C149.366 13.7197 148.904 14.2443 148.31 14.6193C147.719 14.9943 147.029 15.1818 146.241 15.1818ZM146.241 13.9773C146.84 13.9773 147.332 13.8239 147.719 13.517C148.105 13.2102 148.391 12.8068 148.577 12.3068C148.762 11.8068 148.855 11.2652 148.855 10.6818C148.855 10.0985 148.762 9.55492 148.577 9.05114C148.391 8.54735 148.105 8.14015 147.719 7.82955C147.332 7.51894 146.84 7.36364 146.241 7.36364C145.643 7.36364 145.151 7.51894 144.764 7.82955C144.378 8.14015 144.092 8.54735 143.906 9.05114C143.721 9.55492 143.628 10.0985 143.628 10.6818C143.628 11.2652 143.721 11.8068 143.906 12.3068C144.092 12.8068 144.378 13.2102 144.764 13.517C145.151 13.8239 145.643 13.9773 146.241 13.9773ZM152.243 15V6.27273H153.538V7.59091H153.629C153.788 7.15909 154.076 6.80871 154.493 6.53977C154.91 6.27083 155.379 6.13636 155.902 6.13636C156 6.13636 156.124 6.13826 156.271 6.14205C156.419 6.14583 156.531 6.15152 156.607 6.15909V7.52273C156.561 7.51136 156.457 7.49432 156.294 7.47159C156.135 7.44508 155.966 7.43182 155.788 7.43182C155.364 7.43182 154.985 7.52083 154.652 7.69886C154.322 7.87311 154.061 8.11553 153.868 8.42614C153.679 8.73295 153.584 9.08333 153.584 9.47727V15H152.243ZM159.325 18.2727C159.098 18.2727 158.895 18.2538 158.717 18.2159C158.539 18.1818 158.416 18.1477 158.348 18.1136L158.689 16.9318C159.015 17.0152 159.303 17.0455 159.553 17.0227C159.803 17 160.024 16.8883 160.217 16.6875C160.414 16.4905 160.594 16.1705 160.757 15.7273L161.007 15.0455L157.78 6.27273H159.234L161.643 13.2273H161.734L164.143 6.27273H165.598L161.893 16.2727C161.727 16.7235 161.52 17.0966 161.274 17.392C161.028 17.6913 160.742 17.9129 160.416 18.0568C160.094 18.2008 159.731 18.2727 159.325 18.2727Z" fill="#FF8A80"/>
<path d="M42.5227 18.9091H46.7273L56.6136 43.0568H56.9545L66.8409 18.9091H71.0455V48H67.75V25.8977H67.4659L58.375 48H55.1932L46.1023 25.8977H45.8182V48H42.5227V18.9091ZM90.5518 18.9091L99.1882 43.3977H99.5291L108.165 18.9091H111.859L101.177 48H97.5405L86.8587 18.9091H90.5518ZM116.39 48V18.9091H133.947V22.0341H119.913V31.8636H133.038V34.9886H119.913V44.875H134.174V48H116.39ZM163.364 18.9091V48H159.955L144.103 25.1591H143.819V48H140.296V18.9091H143.705L159.614 41.8068H159.898V18.9091H163.364Z" fill="#455A64"/>
<path d="M88.5822 48.0365C88.8574 48.0133 89.0616 47.7714 89.0385 47.4963C89.0153 47.2211 88.7734 47.0168 88.4982 47.04C88.2231 47.0632 88.0188 47.3051 88.042 47.5803C88.0652 47.8554 88.307 48.0597 88.5822 48.0365Z" fill="#455A64"/>
<path d="M86.5 48H80.5C80.224 48 80 47.776 80 47.5C80 47.224 80.224 47 80.5 47H86.5C86.776 47 87 47.224 87 47.5C87 47.776 86.776 48 86.5 48Z" fill="#455A64"/>
<path d="M82.0577 44.5307H80.5022C80.2875 44.5307 80.1133 44.3366 80.1133 44.0974C80.1133 43.8582 80.2875 43.6641 80.5022 43.6641H82.0577C82.2724 43.6641 82.4466 43.8582 82.4466 44.0974C82.4466 44.3366 82.2724 44.5307 82.0577 44.5307Z" fill="#455A64"/>
<path d="M77.3889 41.0698C77.1742 41.0698 77 40.8757 77 40.6365V27.6365C77 27.3973 77.1742 27.2031 77.3889 27.2031C77.6036 27.2031 77.7778 27.3973 77.7778 27.6365V40.6365C77.7778 40.8757 77.6036 41.0698 77.3889 41.0698Z" fill="#455A64"/>
<path d="M83.6111 41.0688C83.3964 41.0688 83.2222 40.8747 83.2222 40.6355V26.3354H77.3889C77.1742 26.3354 77 26.1413 77 25.9021C77 25.6629 77.1742 25.4688 77.3889 25.4688H83.6111C83.8258 25.4688 84 25.6629 84 25.9021V40.6355C84 40.8747 83.8258 41.0688 83.6111 41.0688Z" fill="#455A64"/>
</svg>
