<svg width="38" height="38" viewBox="0 0 38 38" fill="none" xmlns="http://www.w3.org/2000/svg">
<path d="M12.0913 0H25.9094C26.8256 0 27.7043 0.363933 28.3522 1.01174C29 1.65954 29.364 2.53815 29.364 3.45429V5.18143H8.63672V3.45429C8.63672 2.53815 9.00068 1.65954 9.64853 1.01174C10.2964 0.363933 11.1751 0 12.0913 0V0Z" fill="#455A64"/>
<path d="M10.3633 27.6367H27.636V34.5453C27.636 35.4614 27.272 36.34 26.6242 36.9878C25.9763 37.6356 25.0977 37.9996 24.1815 37.9996H13.8178C12.9016 37.9996 12.0229 37.6356 11.3751 36.9878C10.7272 36.34 10.3633 35.4614 10.3633 34.5453V27.6367Z" fill="#455A64"/>
<path d="M32.8182 8.63672H5.18182C3.80751 8.63672 2.4895 9.18262 1.51772 10.1543C0.54594 11.126 0 12.4439 0 13.8181V27.6353C0 29.0095 0.54594 30.3274 1.51772 31.2991C2.4895 32.2708 3.80751 32.8167 5.18182 32.8167H6.90909V27.6353C6.45099 27.6353 6.01165 27.4533 5.68773 27.1294C5.3638 26.8055 5.18182 26.3662 5.18182 25.9082C5.18182 25.4501 5.3638 25.0108 5.68773 24.6869C6.01165 24.363 6.45099 24.181 6.90909 24.181H31.0909C31.549 24.181 31.9884 24.363 32.3123 24.6869C32.6362 25.0108 32.8182 25.4501 32.8182 25.9082C32.8182 26.3662 32.6362 26.8055 32.3123 27.1294C31.9884 27.4533 31.549 27.6353 31.0909 27.6353V32.8167H32.8182C34.1925 32.8167 35.5105 32.2708 36.4823 31.2991C37.4541 30.3274 38 29.0095 38 27.6353V13.8181C38 12.4439 37.4541 11.126 36.4823 10.1543C35.5105 9.18262 34.1925 8.63672 32.8182 8.63672ZM8.63636 17.2724H6.90909C6.45099 17.2724 6.01165 17.0905 5.68773 16.7666C5.3638 16.4427 5.18182 16.0034 5.18182 15.5453C5.18182 15.0872 5.3638 14.6479 5.68773 14.324C6.01165 14.0001 6.45099 13.8181 6.90909 13.8181H8.63636C9.09446 13.8181 9.5338 14.0001 9.85773 14.324C10.1817 14.6479 10.3636 15.0872 10.3636 15.5453C10.3636 16.0034 10.1817 16.4427 9.85773 16.7666C9.5338 17.0905 9.09446 17.2724 8.63636 17.2724ZM17.2727 17.2724H15.5455C15.0874 17.2724 14.648 17.0905 14.3241 16.7666C14.0002 16.4427 13.8182 16.0034 13.8182 15.5453C13.8182 15.0872 14.0002 14.6479 14.3241 14.324C14.648 14.0001 15.0874 13.8181 15.5455 13.8181H17.2727C17.7308 13.8181 18.1702 14.0001 18.4941 14.324C18.818 14.6479 19 15.0872 19 15.5453C19 16.0034 18.818 16.4427 18.4941 16.7666C18.1702 17.0905 17.7308 17.2724 17.2727 17.2724Z" fill="#455A64"/>
</svg>
