<svg width="40" height="40" viewBox="0 0 40 40" fill="none" xmlns="http://www.w3.org/2000/svg">
<path d="M19.042 33.1738C19.3012 33.433 19.6486 33.5714 20.0015 33.5714C20.1765 33.5714 20.353 33.5389 20.5212 33.4683C21.0275 33.2593 21.3586 32.7626 21.3586 32.2143V2.35714C21.3586 1.608 20.7506 1 20.0015 1C19.2523 1 18.6443 1.608 18.6443 2.35714V28.9381L8.74667 19.0405C8.21603 18.5099 7.35831 18.5099 6.82767 19.0405C6.29703 19.5711 6.29703 20.4289 6.82767 20.9595L19.042 33.1738Z" fill="#455A64" stroke="#455A64"/>
<path d="M25.3575 28.4997C25.7049 28.4997 26.0523 28.3667 26.317 28.102L33.1027 21.3163C33.6333 20.7857 33.6333 19.9266 33.1027 19.3973C32.5721 18.868 31.7143 18.8667 31.1837 19.3987L24.398 26.1844C23.8673 26.715 23.8673 27.5727 24.398 28.1034C24.6626 28.3667 25.0101 28.4997 25.3575 28.4997Z" fill="#455A64" stroke="#455A64"/>
<path d="M37.6429 26.7852C36.8924 26.7852 36.2857 27.3918 36.2857 28.1423V36.2852H3.71429V28.1423C3.71429 27.3918 3.10629 26.7852 2.35714 26.7852C1.608 26.7852 1 27.3918 1 28.1423V37.6423C1 38.3928 1.608 38.9994 2.35714 38.9994H37.6429C38.3934 38.9994 39 38.3928 39 37.6423V28.1423C39 27.3918 38.3934 26.7852 37.6429 26.7852Z" fill="#455A64" stroke="#455A64"/>
</svg>
